<svg width="256" height="256" viewBox="0 0 256 256" fill="none" xmlns="http://www.w3.org/2000/svg">
<path d="M67.7005 165.07L68.4802 166.862C69.5198 169.423 70.5595 171.984 71.859 174.289C75.4978 181.46 80.1762 187.35 85.6344 191.959C90.8326 196.057 97.3304 198.105 105.388 198.105C112.925 198.105 118.903 196.825 123.322 193.752C125.141 192.728 126.7 191.447 128 190.423C126.181 190.167 124.361 189.654 122.022 188.886C115.784 186.069 110.586 180.179 106.947 171.728C103.568 164.046 100.189 155.082 97.3304 145.351C94.2115 135.62 91.3524 125.376 88.2335 114.364C85.1146 104.12 81.2159 94.3891 76.2776 85.682C71.3392 77.2311 65.3613 70.3167 58.0837 64.9388C51.0661 59.5609 41.9692 57 31.3128 57C23.7753 57 16.7577 58.0244 10 60.0731C12.3392 60.5853 14.9384 61.3535 17.0177 62.1218C20.9163 63.6583 24.2952 65.9632 27.674 69.0363C33.9119 75.1824 39.1102 82.8651 43.0088 92.0843C46.9075 100.791 50.2864 110.267 53.1454 119.998C56.0044 129.729 58.8635 139.205 61.7225 148.936C63.5419 154.826 65.6212 159.948 67.7005 165.07Z" fill="#00838F"/>
<path d="M188.3 165.07L187.52 166.862C186.48 169.423 185.44 171.984 184.141 174.289C180.502 181.46 175.824 187.35 170.366 191.959C165.167 196.057 158.67 198.105 150.612 198.105C143.075 198.105 137.097 196.825 132.678 193.752C130.859 192.728 129.3 191.447 128 190.423C129.819 190.167 131.639 189.654 133.978 188.886C140.216 186.069 145.414 180.179 149.053 171.728C152.432 164.046 155.811 155.082 158.67 145.351C161.789 135.62 164.648 125.376 167.767 114.364C170.885 104.12 174.784 94.3891 179.722 85.682C184.661 77.2311 190.639 70.3167 197.916 64.9388C204.934 59.5609 214.031 57 224.687 57C232.225 57 239.242 58.0244 246 60.0731C243.661 60.5853 241.062 61.3535 238.982 62.1218C235.084 63.6583 231.705 65.9632 228.326 69.0363C222.088 75.1824 216.89 82.8651 212.991 92.0843C209.093 100.791 205.714 110.267 202.855 119.998C199.996 129.729 197.137 139.205 194.278 148.936C192.458 154.826 190.379 159.948 188.3 165.07Z" fill="#00838F"/>
</svg>
